# xmcd
#
# Track frame offsets: 
#        150
#        20430
#        42293
#        64568
#        83023
#        103146
#        119761
#        147987
#        175415
#        199791
#        227544
#        251540
#        275314
#
# Disc length: 3734 seconds
#
# Revision: 0
# Processed by: cddbd v1.5.2PL0 Copyright (c) Steve Scherf et al.
# Submitted via: ExactAudioCopy v1.0b1
#
DISCID=b20e940d
DTITLE=Blues Company - X-Ray Blues
DYEAR=2013
DGENRE=Blues
TTITLE0=The Blues Been Good To Me
TTITLE1=Big Legged Woman
TTITLE2=If I Only Could
TTITLE3=The Mirror
TTITLE4=A Little Bit Of That
TTITLE5=Smoking Gun
TTITLE6=You Drive Me Crazy
TTITLE7=Uh Wee Baby
TTITLE8=Bon Ton Roulez
TTITLE9=Sugar Daddy
TTITLE10=Kiss
TTITLE11=Albatross
TTITLE12=Summertime
EXTD=
EXTT0=
EXTT1=
EXTT2=
EXTT3=
EXTT4=
EXTT5=
EXTT6=
EXTT7=
EXTT8=
EXTT9=
EXTT10=
EXTT11=
EXTT12=
PLAYORDER=
